<svg xmlns="http://www.w3.org/2000/svg" width="30" height="30" viewBox="0 0 30 30"><path fill="#ef7f1b" d="M15.01 12.43a2.56 2.56 0 0 0 2.57-2.59A2.57 2.57 0 0 0 15 7.26a2.58 2.58 0 0 0-2.59 2.61 2.57 2.57 0 0 0 2.6 2.56zM15 0a15 15 0 1 0 0 30 15 15 0 0 0 0-30zm.02 4.56a5.29 5.29 0 1 1-.07 10.58 5.29 5.29 0 0 1 .07-10.58zm5.92 12.64a6.2 6.2 0 0 1-2.29 1.48c-.81.32-1.71.48-2.6.58l.29.3 3.6 3.63c.41.41.5.92.27 1.4-.24.53-.8.87-1.33.83-.35-.02-.61-.19-.85-.43-.9-.91-1.83-1.81-2.72-2.74-.26-.27-.38-.22-.61.02-.91.94-1.84 1.86-2.77 2.78-.42.42-.92.49-1.4.25A1.41 1.41 0 0 1 9.7 24c.02-.36.2-.64.44-.88l3.57-3.57.26-.28a8.1 8.1 0 0 1-4.32-1.55c-.16-.12-.32-.24-.46-.37-.55-.53-.6-1.13-.17-1.75.37-.53 1-.67 1.64-.37l.36.21a7.1 7.1 0 0 0 7.86.08c.23-.18.48-.33.76-.4a1.2 1.2 0 0 1 1.38.55c.34.56.34 1.1-.08 1.53z"/></svg>