<svg xmlns="http://www.w3.org/2000/svg" width="66" height="66" viewBox="0 0 66 66"><path fill="#fff" d="M52.24 66c-2.7 0-5.97-.68-9.55-2.03-7.88-2.97-16.44-8.84-24.13-16.52-7.68-7.69-13.54-16.26-16.52-24.14-2.7-7.16-2.71-13.04-.02-15.73.39-.39.79-.8 1.19-1.23C5.67 3.77 8.51.84 12.12 1c2.53.1 4.99 1.68 7.51 4.81 7.42 9.23 4.07 12.53.2 16.34l-.69.68c-.63.64-1.83 3.57 9.32 14.72 3.64 3.64 6.74 6.3 9.21 7.92 1.57 1.01 4.36 2.54 5.5 1.4l.69-.7c3.81-3.87 7.1-7.21 16.33.22 3.13 2.51 4.7 4.97 4.81 7.51.15 3.68-2.78 6.46-5.36 8.91l-1.23 1.18C57.07 65.33 54.94 66 52.24 66zM11.86 3.18c-2.61 0-4.97 2.48-7.06 4.68L3.57 9.13c-2 2-1.8 7.26.52 13.41 2.86 7.6 8.55 15.89 16.02 23.36 7.47 7.47 15.76 13.16 23.35 16.03 6.14 2.32 11.41 2.52 13.41.51l1.26-1.22c2.25-2.13 4.79-4.55 4.69-7.24-.08-1.84-1.42-3.82-4-5.89-7.69-6.18-9.84-4-13.41-.39l-.7.71c-1.69 1.71-4.46 1.33-8.23-1.11-2.6-1.7-5.82-4.46-9.57-8.21-9.25-9.25-12.21-14.91-9.31-17.81l.69-.69c3.63-3.57 5.82-5.72-.37-13.42-2.07-2.57-4.05-3.91-5.89-3.99h-.17zm40.77 24.68a1.1 1.1 0 0 1-1.02-1.5 9.18 9.18 0 0 0-12.3-11.83 1.1 1.1 0 0 1-1.44-.55c-.25-.55-.01-1.2.54-1.44a11.42 11.42 0 0 1 12.73 2.32 11.36 11.36 0 0 1 2.5 12.32 1.1 1.1 0 0 1-1.01.68zm9.75 3.96a1.09 1.09 0 0 1-1.01-1.5 19.69 19.69 0 0 0-4.33-21.37 19.82 19.82 0 0 0-22.06-4.02c-.56.24-1.2 0-1.45-.55s-.01-1.2.55-1.45a22.01 22.01 0 0 1 24.51 4.48 21.86 21.86 0 0 1 4.81 23.73 1.1 1.1 0 0 1-1.02.68z"/></svg>