<svg xmlns="http://www.w3.org/2000/svg" xmlns:xlink="http://www.w3.org/1999/xlink" width="54" height="74" viewBox="0 0 54 74"><defs><path id="u41ka" d="M632 2816.33l-4.24 47.29a3.14 3.14 0 0 1-2.13 2.55l-16.69 4.61a8.7 8.7 0 0 1-3.9 0l-16.67-4.62a3.16 3.16 0 0 1-2.13-2.56l-4.23-47.27c-.1-1.1.73-2.04 1.84-2.04h46.3c1.11 0 1.94.94 1.84 2.04zm-9.3 9.84a.83.83 0 0 0-.82-.93h-29.76a.84.84 0 0 0-.83.92l.4 3.9c.05.43.41.75.84.75h14.22a.35.35 0 0 1 .13.67l-13.5 5.55c-.52.22-.84.74-.77 1.3l.4 3.63c.07.64.6 1.12 1.24 1.12h21.11l-.91 8.57-7.47 2.6-7.43-2.58-.44-4.13a1.25 1.25 0 0 0-1.25-1.12h-2.98a1.26 1.26 0 0 0-1.25 1.39l.72 6.72a1.9 1.9 0 0 0 1.27 1.6l10.73 3.7c.4.14.85.14 1.26 0l10.78-3.78a1.9 1.9 0 0 0 1.26-1.6l1.59-14.85a1.9 1.9 0 0 0-1.9-2.1H609.2a.42.42 0 0 1-.16-.8l13.06-5.34h.03zm-28.97-19.8a5.24 5.24 0 0 1 5.38-5.37c1.88 0 3.53.92 4.43 2.38l-2.04 1.18a2.67 2.67 0 0 0-2.39-1.26c-1.83 0-3.01 1.22-3.01 3.06 0 1.85 1.18 3.07 3.01 3.07 1.05 0 1.95-.47 2.4-1.27l2.03 1.18a5.12 5.12 0 0 1-4.43 2.39 5.24 5.24 0 0 1-5.38-5.37zm10.4 2.8l2.04-1.17c.37.85 1 1.43 2.17 1.43 1.13 0 1.4-.44 1.4-.84 0-.63-.58-.89-2.14-1.31-1.53-.43-3.04-1.17-3.04-3.14 0-2 1.68-3.14 3.47-3.14 1.7 0 3.03.8 3.78 2.33l-1.99 1.16c-.35-.74-.84-1.2-1.79-1.2-.74 0-1.1.37-1.1.79 0 .47.25.8 1.86 1.28 1.56.47 3.32 1.02 3.32 3.2 0 1.99-1.6 3.17-3.84 3.17-2.17 0-3.56-1.03-4.14-2.55zm8.35 0l2.04-1.17c.37.85 1 1.43 2.17 1.43 1.12 0 1.4-.44 1.4-.84 0-.63-.59-.89-2.14-1.31-1.54-.43-3.04-1.17-3.04-3.14 0-2 1.68-3.14 3.47-3.14 1.7 0 3.03.8 3.78 2.33l-2 1.16c-.35-.74-.84-1.2-1.78-1.2-.74 0-1.1.37-1.1.79 0 .47.24.8 1.85 1.28 1.57.47 3.33 1.02 3.33 3.2 0 1.99-1.6 3.17-3.84 3.17-2.18 0-3.56-1.03-4.14-2.55z"/></defs><g><g transform="translate(-580 -2799)"><use fill="#ff001b" xlink:href="#u41ka"/></g></g></svg>