<svg xmlns="http://www.w3.org/2000/svg" xmlns:xlink="http://www.w3.org/1999/xlink" width="54" height="73" viewBox="0 0 54 73"><defs><path id="tgy2a" d="M531.14 2864.13c.52 0 .91.43.86.95l-4.4 49.41c-.05.52-.5 1.06-1 1.2l-18.71 5.2c-.5.14-1.33.14-1.83 0l-18.66-5.19c-.5-.14-.95-.68-1-1.2l-4.4-49.42a.86.86 0 0 1 .87-.95zm-9.37 10.5h-14.78-14.79c-.52 0-.91.37-.87.84l.16 1.79 1.38 15.45c.04.52.5.95 1.03.95H513.77c.52 0 .9.42.86.94l-.56 6.27c-.05.52-.5 1.06-1 1.2l-5.17 1.4-.92.24s-.42-.1-.92-.25l-5.16-1.4c-.5-.13-.96-.67-1-1.19l-.28-3.12a1.06 1.06 0 0 0-1.03-.95h-4.4a.86.86 0 0 0-.87.95l.7 7.99c.05.52.5 1.06 1 1.2l11.04 3.07.93.25.93-.26 11.02-3.06c.5-.14.94-.5.96-.79l.14-1.48 1.3-14.67.16-1.8a.76.76 0 0 0-.77-.84H507h-7.35c-.52 0-.98-.43-1.03-.95l-.4-4.55a.86.86 0 0 1 .86-.94H522.14l.08-.71.14-1.66.12-1.3.16-1.78c.04-.47-.35-.85-.87-.85zM497.04 2851v10.35h-2.36v-4.11h-3.25v4.1h-2.37v-10.34h2.37v3.96h3.25v-3.96zm8.71 2.27h-2.65v8.08h-2.37v-8.08h-2.66v-2.27h7.68zm11.38 8.08h-2.36v-6.02l-2.68 4.39h-.26l-2.68-4.4v6.03h-2.36V2851h2.36l2.8 4.6 2.82-4.6h2.36zm7.83-2.28v2.28h-6.06V2851h2.37v8.07z"/></defs><g><g transform="translate(-480 -2850)"><use fill="#ff001b" xlink:href="#tgy2a"/></g></g></svg>