<svg xmlns="http://www.w3.org/2000/svg" xmlns:xlink="http://www.w3.org/1999/xlink" width="53" height="39" viewBox="0 0 53 39"><defs><path id="fyjoa" d="M639.44 4426.17a.73.73 0 0 1-.98.32c-1.16-.57-3.55-.7-4.37-.7a.73.73 0 0 1-.74-.71c0-.4.33-.72.74-.72.13 0 3.32.01 5.02.84.37.18.51.61.33.97zm5.56 12.17v5.94c0 .4-.33.72-.73.72a.73.73 0 0 1-.73-.72v-5.94c0-.7-.49-1.33-1.18-1.53l-3.02-.84c-.11-.03-.22-.08-.31-.12l-1.86 1.82v6.61c0 .4-.33.72-.73.72a.73.73 0 0 1-.74-.72v-6.61l-1.87-1.84c-.25.12-.5.2-.68.24l-.18.05c.68.7 1.08 1.63 1.08 2.63v5.53c0 .4-.32.72-.73.72a.73.73 0 0 1-.73-.72v-5.53c0-.98-.64-1.87-1.58-2.21l-4.75-1.7-1.98 2.92a1.51 1.51 0 0 1-1.26.66c-.4 0-.79-.16-1.07-.44l-1.2-1.18v7.48c0 .4-.34.72-.74.72a.73.73 0 0 1-.73-.72v-7.48l-1.21 1.18a1.53 1.53 0 0 1-2.33-.22l-1.98-2.91-4.75 1.69a2.36 2.36 0 0 0-1.58 2.21v5.53c0 .4-.33.72-.73.72a.73.73 0 0 1-.74-.72v-5.53c0-.72.22-1.41.6-2l-.8-.4-.86.8a3.1 3.1 0 0 1-4.24 0l-.85-.8-2.45 1.2c-.55.28-.9.82-.9 1.42v5.31c0 .4-.32.72-.73.72a.73.73 0 0 1-.73-.72v-5.3a3 3 0 0 1 1.7-2.71l1.97-.96c-2.11-.9-2.78-2.17-2.81-2.23a.7.7 0 0 1 0-.64c.53-1.04.6-2.94.64-4.46l.07-1.42c.25-3.44 2.92-6.04 6.21-6.04 3.3 0 5.96 2.6 6.21 6.04l.07 1.42c.05 1.52.11 3.42.64 4.46.1.2.1.44 0 .64-.03.06-.7 1.33-2.8 2.23l.7.34c.28-.19.58-.34.9-.46l4.51-1.6c-.01-.2.06-.4.2-.56l1.37-1.4v-2.42a8.7 8.7 0 0 1-3.13-6.7v-1.62a8.17 8.17 0 0 1-.79-3.5v-1.53a6.94 6.94 0 0 1 7-6.86h10.96c.4 0 .74.32.74.72v7.68c0 1.2-.27 2.38-.79 3.49v1.88a8.36 8.36 0 0 1-3.13 6.5v2.36l1.36 1.4a.7.7 0 0 1 .2.55l4.27 1.53 1.48-.42c.6-.17.6-.23.6-.4v-1.03a5.57 5.57 0 0 1-2.34-4.53v-1.18l-.38-.73a3.75 3.75 0 0 1-.4-1.7v-.04a4.61 4.61 0 0 1 4.64-4.56h7.05c.4 0 .73.32.73.72v3.7c0 .7-.17 1.41-.49 2.04l-.3.57v1.37a5.24 5.24 0 0 1-2.34 4.39v.99c0 .13.09.25.22.28l3.02.85a3.04 3.04 0 0 1 2.24 2.9zm-45.3-5.04a5.38 5.38 0 0 1-1.93-2.34 7.8 7.8 0 0 1-.42 1.72c.3.36.98 1 2.35 1.48zm4.88 2.17a1.46 1.46 0 0 1-.18-.7v-.76a5.54 5.54 0 0 1-3.24 0v.76c0 .25-.06.5-.17.7l.68.64c.62.58 1.6.58 2.22 0zm2.12-5.95c-1.19-2.55-4.23-2.9-5.18-2.95l-1.1 1.12a.74.74 0 0 1-1.04.02.7.7 0 0 1-.01-1.02l1.32-1.34a.74.74 0 0 1 .5-.22c.06 0 1.32-.03 2.79.43a6.58 6.58 0 0 1 3.62 2.6 624.24 624.24 0 0 0-.07-1.5 5.28 5.28 0 0 0-1.48-3.34 4.57 4.57 0 0 0-3.27-1.36c-1.24 0-2.4.48-3.27 1.36a5.28 5.28 0 0 0-1.48 3.35c-.03.4-.05.86-.06 1.36v.18a.73.73 0 0 1 .84.71 3.93 3.93 0 0 0 3.97 3.89c1.97 0 3.62-1.4 3.92-3.29zm1.51 3.16c-.2-.5-.33-1.1-.41-1.71a5.34 5.34 0 0 1-1.94 2.34v.86a5.3 5.3 0 0 0 2.35-1.49zm11.33-2.96c1.73.11 3.4-.38 4.75-1.39h.01a6.83 6.83 0 0 0 2.8-5.55v-2.05c0-.1.03-.21.08-.31.47-.96.71-1.98.71-3.02v-6.96h-10.23a5.49 5.49 0 0 0-5.53 5.42v1.54c0 1.04.24 2.06.7 3.02.06.1.08.2.08.31v1.78c0 3.8 2.91 6.98 6.63 7.21zm-.67 5.45l-3.46-2.32-.73.76 2.28 3.35s.01.02.03.02l.04-.01zm5.1-3.64v-1.3a8.61 8.61 0 0 1-7.93-.04v1.34l3.97 2.66zm1.37 2.08l-.73-.76-3.46 2.32 1.83 1.8.04.01c.03 0 .04-.02.04-.02zm12.77 1.1a1.69 1.69 0 0 1-.06-.41v-.3a5.55 5.55 0 0 1-3.23 0v.3c0 .15-.02.3-.05.42l1.67 1.63zm2.3-5.79v-1.54a.7.7 0 0 1 .07-.32l.37-.72c.22-.43.34-.92.34-1.4v-2.98h-6.32a3.16 3.16 0 0 0-3.18 3.12v.04c0 .37.08.73.25 1.05l.45.9c.05.1.08.2.08.31v1.35a4.05 4.05 0 0 0 3.84 4.08c1.09.03 2.11-.36 2.89-1.1a3.82 3.82 0 0 0 1.2-2.79zm1.46 10.75v4.61c0 .4-.33.72-.74.72a.73.73 0 0 1-.73-.72v-4.6c0-.4.33-.73.73-.73.41 0 .74.33.74.72zm-42.27.95v3.66c0 .4-.33.72-.74.72a.73.73 0 0 1-.73-.72v-3.66c0-.4.33-.72.73-.72.4 0 .74.33.74.72zm26.4-21.95a.74.74 0 0 1-1.03 0c-.98-.96-2.63-1.52-4.91-1.67-1.94-.12-3.82.1-4.76.23-.02 0-.04.03-.04.05v1.66c0 .4-.33.71-.73.71a.73.73 0 0 1-.74-.71v-1.66c0-.74.55-1.36 1.29-1.47 2.36-.35 8.16-.87 10.93 1.85a.7.7 0 0 1 0 1.01zm-13.87 22.54v3.07c0 .4-.33.72-.74.72a.73.73 0 0 1-.73-.72v-3.07c0-.4.33-.72.73-.72.4 0 .74.32.74.72zm17.23 0v3.07c0 .4-.33.72-.74.72a.73.73 0 0 1-.73-.72v-3.07c0-.4.33-.72.73-.72.4 0 .74.32.74.72z"/></defs><g><g transform="translate(-593 -4407)"><use fill="#ff001b" xlink:href="#fyjoa"/></g></g></svg>