<svg xmlns="http://www.w3.org/2000/svg" xmlns:xlink="http://www.w3.org/1999/xlink" width="48" height="54" viewBox="0 0 48 54"><defs><path id="2omta" d="M1297.48 4395c.93.2 1.82.5 2.53 1.19a4.4 4.4 0 0 1 1.32 4.65 4.31 4.31 0 0 1-3.69 3.26 4.54 4.54 0 0 1-5.17-4.36 4.63 4.63 0 0 1 3.73-4.65l.32-.09h.96zm-.46 7.54a2.91 2.91 0 0 0 2.9-2.95 2.92 2.92 0 1 0-5.85 0c0 1.65 1.3 2.96 2.95 2.95zm.01 8.38a9.07 9.07 0 0 1 8.94 9.1c-.02 5-4.1 9.11-9.03 9.06a9.07 9.07 0 0 1-8.92-9.12c.05-5 4.1-9.06 9.01-9.04zm-5.05 14.48l.13-.2a3.27 3.27 0 0 1 2.97-1.9c1.28-.03 2.57-.01 3.86 0 .85 0 1.6.31 2.21.91.35.35.6.78.9 1.17 3-2.67 3.08-7.63.18-10.62a7.34 7.34 0 0 0-10.58.1 7.48 7.48 0 0 0 .33 10.54zm5.02-.5c-.6 0-1.22-.02-1.83 0-.8.02-1.37.4-1.7 1.15-.11.27-.1.45.22.6a7.28 7.28 0 0 0 6.64 0c.28-.14.3-.3.21-.55a1.84 1.84 0 0 0-1.7-1.2c-.61-.02-1.22 0-1.84 0zm.02 20.1a4.6 4.6 0 0 1-4.55-4.59 4.6 4.6 0 0 1 4.5-4.58 4.61 4.61 0 0 1 4.56 4.6 4.6 4.6 0 0 1-4.51 4.57zm-.01-7.54a2.91 2.91 0 0 0-2.93 2.92 2.94 2.94 0 0 0 2.9 3 2.93 2.93 0 0 0 2.94-2.93 2.92 2.92 0 0 0-2.91-2.99zm17.45-23.09a4.58 4.58 0 0 1 .03-9.16 4.57 4.57 0 1 1-.03 9.16zm-2.9-4.57a2.93 2.93 0 0 0 2.93 2.97c1.6-.01 2.92-1.35 2.9-2.95-.01-1.7-1.3-3.01-2.96-3a2.95 2.95 0 0 0-2.87 2.98zm-31.97-4.58a4.57 4.57 0 0 1 4.45 4.62 4.54 4.54 0 0 1-4.59 4.53 4.56 4.56 0 0 1-4.45-4.67 4.54 4.54 0 0 1 4.59-4.48zm2.85 4.61a2.95 2.95 0 0 0-2.84-3 2.94 2.94 0 0 0-3 2.95 2.96 2.96 0 0 0 2.87 2.99 2.93 2.93 0 0 0 2.97-2.94zm32.05 24.96a4.58 4.58 0 0 1-.03-9.16 4.58 4.58 0 0 1 .03 9.16zm-2.93-4.62a2.95 2.95 0 0 0 2.85 3.01 2.93 2.93 0 0 0 2.98-2.96 2.96 2.96 0 0 0-2.87-2.99 2.93 2.93 0 0 0-2.96 2.94zm-32.1 4.62a4.58 4.58 0 0 1 .12-9.15 4.59 4.59 0 0 1-.12 9.15zm2.98-4.61a2.93 2.93 0 0 0-2.96-2.95 2.95 2.95 0 0 0-2.88 2.99c.02 1.69 1.34 3 2.99 2.96a2.95 2.95 0 0 0 2.85-3zm23.74-14.61l-.8-1.4 3.68-2.14.8 1.4-3.68 2.14zm-18.36 0l-3.68-2.15.8-1.4 3.67 2.15-.8 1.4zm-2.88 12.4l-.8-1.39 3.68-2.15.8 1.4c-1.22.7-2.42 1.4-3.68 2.15zm24.12 0l-3.68-2.15.8-1.39 3.68 2.15-.8 1.4zm-11.3-18.24h-1.52v-4.25h1.51v4.25zm-1.55 24.8v-4.05l.03-.2h1.52v4.25h-1.55zm-12.24-29.05l-1.07-1.2 1.37-1.15.97 1.28-1.27 1.07zm25.75-2.36l1.37 1.16-1.06 1.2-1.27-1.07.96-1.29zm-31.67 21.03l-1.56.34-.3-1.77 1.58-.21.28 1.64zm39.46.34l-1.55-.34.26-1.64 1.57.2-.28 1.78zm0-8.98l.29 1.78-1.57.2-.27-1.64 1.55-.34zm-39.47.34l-.26 1.63-1.58-.18.3-1.78 1.54.33zm6.23 21.03l-1.36-1.16 1.06-1.19 1.27 1.06-.97 1.29zm6.8-35.56l-1.54.58-.61-1.48 1.67-.63.49 1.53zm18.96 33.2l1.07 1.2-1.38 1.15-.96-1.28 1.27-1.07zm-2.63 2.03l.85 1.36-1.54.9-.74-1.4 1.43-.86zm-2.93 1.55l.61 1.48-1.67.64-.49-1.54 1.55-.58zm-16.44-35.5l-1.44.84-.85-1.36 1.55-.89.74 1.42zm17.93.01l.74-1.43 1.55.9-.85 1.36-1.44-.83zm-1.5-.71l-1.54-.58.48-1.53 1.68.63-.61 1.48zm-17.17 36.93l-1.55-.91c.3-.46.56-.9.85-1.36l1.44.83-.74 1.44zm3.79-.15l-.49 1.53-1.67-.62.61-1.49 1.55.58zm26.85-17.84h-1.53v-1.68h1.53v1.68zm-41.86-1.68h1.52v1.68h-1.52v-1.68zm17.44-.62a3.5 3.5 0 0 1 3.5-3.53 3.5 3.5 0 0 1 3.48 3.54c-.01 1.94-1.56 3.5-3.47 3.51a3.5 3.5 0 0 1-3.5-3.52zm1.58-.04a1.95 1.95 0 0 0 1.87 1.96 1.93 1.93 0 0 0 .07-3.86 1.96 1.96 0 0 0-1.94 1.9z"/></defs><g><g transform="translate(-1273 -4393)"><use fill="#ff001b" xlink:href="#2omta"/></g></g></svg>