<svg xmlns="http://www.w3.org/2000/svg" xmlns:xlink="http://www.w3.org/1999/xlink" width="40" height="59" viewBox="0 0 40 59"><defs><path id="5ygfa" d="M420.1 6038.03v3.77h7.32a2.1 2.1 0 0 1 0 4.2h-18.84a2.1 2.1 0 0 1 0-4.2h7.32v-3.77a18.06 18.06 0 0 1-15.9-17.93 2.1 2.1 0 1 1 4.18 0c0 7.64 6.2 13.86 13.82 13.86s13.82-6.22 13.82-13.86a2.1 2.1 0 1 1 4.18 0c0 9.25-6.96 16.89-15.9 17.93zm-13.97-18.63v-17.5A11.9 11.9 0 0 1 418 5990a11.9 11.9 0 0 1 11.86 11.9v17.5a11.9 11.9 0 0 1-11.86 11.9 11.9 11.9 0 0 1-11.87-11.9zm4.2 0a7.7 7.7 0 0 0 7.67 7.7 7.7 7.7 0 0 0 7.67-7.7v-17.5a7.7 7.7 0 0 0-7.67-7.7 7.7 7.7 0 0 0-7.68 7.7zm6.19-13.92a2.11 2.11 0 0 1 0-2.96 2.16 2.16 0 0 1 2.96 0 2.11 2.11 0 0 1 0 2.96 2.1 2.1 0 0 1-2.96 0zm0 7.35a2.12 2.12 0 0 1 0-2.96 2.16 2.16 0 0 1 2.96 0 2.11 2.11 0 0 1 0 2.96 2.1 2.1 0 0 1-2.96 0zm0 7.35a2.11 2.11 0 0 1 0-2.96 2.15 2.15 0 0 1 2.96 0 2.11 2.11 0 0 1 0 2.96 2.1 2.1 0 0 1-2.96 0z"/></defs><g><g transform="translate(-398 -5988)"><use fill="#ff001b" xlink:href="#5ygfa"/></g></g></svg>