<svg xmlns="http://www.w3.org/2000/svg" xmlns:xlink="http://www.w3.org/1999/xlink" width="56" height="54" viewBox="0 0 56 54"><defs><path id="azwza" d="M1009.12 5999.4a1.94 1.94 0 0 1 0-2.74 12.49 12.49 0 0 1 8.87-3.66c3.36 0 6.52 1.3 8.89 3.67a1.94 1.94 0 0 1-1.38 3.31c-.5 0-1-.19-1.38-.57a8.63 8.63 0 0 0-6.13-2.53 8.6 8.6 0 0 0-6.12 2.53c-.76.76-2 .76-2.75 0zm8.9.87c2.3 0 4.48.9 6.11 2.53a1.94 1.94 0 0 1-1.38 3.3c-.5 0-1-.18-1.38-.56a4.69 4.69 0 0 0-6.68-.01c-.76.76-2 .76-2.76 0a1.94 1.94 0 0 1 0-2.74 8.57 8.57 0 0 1 6.09-2.52zm25.81 11.8l-5.6 12.81a5.47 5.47 0 0 1 5.4 5.98l-.6 6.5a6.33 6.33 0 0 1-6.19 5.64h-37.69a6.33 6.33 0 0 1-6.2-5.63l-.59-6.5a5.43 5.43 0 0 1 5.4-5.99l-5.6-12.82a1.95 1.95 0 0 1 3.58-1.55l6.27 14.37h14.04v-14.89a1.95 1.95 0 0 1 3.9 0v14.89h14.03l6.27-14.37a1.95 1.95 0 0 1 3.58 1.55zm-4.48 17.2c-.3-.33-.72-.5-1.2-.5h-9.43v3.23a1.95 1.95 0 0 1-3.9 0v-3.24h-1.95v3.24a1.95 1.95 0 0 1-3.9 0v-3.24h-1.95v3.24a1.95 1.95 0 0 1-3.9 0v-3.24h-1.95v3.24a1.95 1.95 0 0 1-3.9 0v-3.24h-9.42c-.48 0-.91.18-1.2.5-.3.33-.45.77-.4 1.25l.6 6.5a2.43 2.43 0 0 0 2.3 2.1h37.7c1.12 0 2.2-.97 2.3-2.1l.6-6.5a1.6 1.6 0 0 0-.4-1.24z"/></defs><g><g transform="translate(-990 -5991)"><use fill="#ff001b" xlink:href="#azwza"/></g></g></svg>