<svg xmlns="http://www.w3.org/2000/svg" xmlns:xlink="http://www.w3.org/1999/xlink" width="53" height="53" viewBox="0 0 53 53"><defs><path id="u023a" d="M1043 6147.37v38.75c0 1.04-.84 1.88-1.88 1.88h-46.25a1.87 1.87 0 0 1-1.87-1.88v-36.25c0-.47.18-.93.5-1.28l9.38-10c.36-.38.85-.6 1.37-.6h32.5c1.04 0 1.87.85 1.87 1.88v5.63h2.5c1.04 0 1.88.84 1.88 1.87zm-3.75 36.88v-35h-30.83v9.8c0 1.02-.85 1.87-1.88 1.87h-9.79v23.33zm-4.38-38.75v-3.75h-29.8l-8.32 8.87v3.9l8.47-8.47c.35-.35.82-.55 1.32-.55zm-30.2 11.67v-5.27l-5.27 5.27zm31.77-2.3v10c0 1.04-.84 1.88-1.88 1.88h-20.62a1.87 1.87 0 0 1-1.88-1.88v-10c0-1.03.84-1.87 1.88-1.87h20.62c1.04 0 1.88.84 1.88 1.87zm-3.75 8.13v-6.25h-16.88v6.25zm1.87 7.5a1.87 1.87 0 1 1 0 3.75h-33.12a1.87 1.87 0 1 1 0-3.75zm0 6.87a1.87 1.87 0 1 1 0 3.75h-33.12a1.87 1.87 0 1 1 0-3.75z"/></defs><g><g transform="translate(-991 -6136)"><use fill="#ff001b" xlink:href="#u023a"/></g></g></svg>