<svg xmlns="http://www.w3.org/2000/svg" xmlns:xlink="http://www.w3.org/1999/xlink" width="63" height="63" viewBox="0 0 63 63"><defs><path id="pmaia" d="M740 2762.92v56.16c0 1.06-.86 1.92-1.92 1.92h-56.16a1.92 1.92 0 0 1-1.92-1.92v-56.16c0-1.06.86-1.92 1.92-1.92h56.16c1.06 0 1.92.86 1.92 1.92zm-32.43 20.53c0-.99-.8-1.8-1.79-1.8h-6.68a1.79 1.79 0 0 0 0 3.59h4.9v9.11c0 2.21-1 2.21-1.66 2.21-.83 0-1.55-.43-2.14-1.3a1.8 1.8 0 0 0-2.95 2.02 6.1 6.1 0 0 0 5.1 2.86c3.22 0 5.22-2.22 5.22-5.79zm15.5 11.85c.03-4.02-3.53-5.1-5.9-5.81-2.76-.84-3.56-1.29-3.56-2.66 0-1.27 1.75-1.72 3.25-1.72 1.12 0 2.45.36 3.24.87a1.79 1.79 0 0 0 1.94-3 10.05 10.05 0 0 0-5.18-1.45c-4.08 0-6.83 2.13-6.83 5.3 0 4.24 3.68 5.35 6.11 6.09 2.76.83 3.35 1.25 3.34 2.36 0 1.19-1.68 1.6-3.11 1.6a5.5 5.5 0 0 1-3.8-1.51 1.79 1.79 0 1 0-2.6 2.46 9.03 9.03 0 0 0 6.4 2.64c4 0 6.7-2.08 6.7-5.17z"/></defs><g><g transform="translate(-678 -2759)"><use fill="#ff001b" xlink:href="#pmaia"/></g></g></svg>