<svg xmlns="http://www.w3.org/2000/svg" width="41" height="28" viewBox="0 0 41 28"><path fill="#fff" d="M36.06 28H4.03A4.05 4.05 0 0 1 .9 26.56c-.1-.07-.19-.14-.27-.22a1.19 1.19 0 0 1-.36-.86A3.87 3.87 0 0 1 0 24.07V3.92A3.96 3.96 0 0 1 4.03 0h31.94a4.08 4.08 0 0 1 3.05 1.35c.61.69.98 1.58.98 2.57v20.15c.02.59-.1 1.15-.33 1.65-.04.22-.14.44-.3.62l-.17.15A4.03 4.03 0 0 1 36.06 28zM4.03 25.38h31.94c.11 0 .22-.02.33-.04L25.03 14.96l-4.1 3.53c-.26.18-.62.35-.89.35-.36 0-.62-.09-.9-.35l-4.13-3.57L3.76 25.35l.27.03zM37.3 4.36l-10.28 8.88L37.3 22.7zM2.68 4.3v18.4l10.33-9.5zm17.36 11.5L35.32 2.62H4.77z"/></svg>