<svg xmlns="http://www.w3.org/2000/svg" width="30" height="30" viewBox="0 0 30 30"><path d="M15 0a15 15 0 1 0 0 30 15 15 0 0 0 0-30zm7.6 16.62c.7.69 1.45 1.33 2.08 2.08.27.33.54.68.74 1.07.28.55.02 1.16-.47 1.19h-3.07a2.4 2.4 0 0 1-1.96-.8c-.43-.43-.82-.89-1.23-1.34a2.77 2.77 0 0 0-.55-.49c-.42-.28-.79-.19-1.03.25s-.3.93-.32 1.43c-.03.72-.25.91-.98.95a7.92 7.92 0 0 1-4.4-.95 9.63 9.63 0 0 1-2.96-2.77 37.23 37.23 0 0 1-3.9-6.94c-.24-.55-.06-.84.55-.85 1-.02 2-.02 3 0 .41 0 .68.24.84.62.54 1.33 1.2 2.6 2.04 3.78.22.31.45.63.77.85.36.24.63.16.8-.24.1-.25.15-.52.17-.79.08-.93.1-1.85-.05-2.78-.08-.58-.4-.95-.98-1.06-.3-.05-.25-.16-.11-.33.25-.29.48-.47.94-.47H16c.55.11.67.35.75.91v3.85c0 .22.1.85.5.99.3.1.5-.15.68-.34.84-.88 1.43-1.93 1.96-3.01.24-.47.44-.96.63-1.46.15-.36.38-.54.79-.54l3.34.01c.1 0 .2 0 .3.02.56.09.72.33.54.88-.27.87-.8 1.59-1.33 2.31-.56.77-1.15 1.51-1.7 2.29-.51.71-.47 1.07.16 1.68z"/></svg>