<svg xmlns="http://www.w3.org/2000/svg" width="30" height="30" viewBox="0 0 30 30"><path fill="#2652c0" d="M15 0a15 15 0 1 0 0 30 15 15 0 0 0 0-30zm7.6 16.62c.7.68 1.45 1.33 2.08 2.08.27.33.54.68.74 1.07.28.55.02 1.16-.47 1.19h-3.08a2.4 2.4 0 0 1-1.95-.8c-.43-.43-.82-.89-1.23-1.34a2.77 2.77 0 0 0-.55-.49c-.42-.28-.79-.19-1.03.24-.24.45-.3.94-.32 1.44-.04.72-.25.91-.98.95a7.92 7.92 0 0 1-4.4-.95 9.62 9.62 0 0 1-2.96-2.77 37.23 37.23 0 0 1-3.9-6.94c-.24-.55-.06-.84.55-.85 1-.02 2-.02 3 0 .41 0 .68.24.84.62a18.9 18.9 0 0 0 2.04 3.78c.22.31.45.63.77.85.36.24.63.16.8-.24.1-.25.15-.52.17-.79.08-.93.1-1.85-.05-2.78-.08-.58-.4-.95-.98-1.06-.3-.05-.25-.16-.11-.33.25-.29.48-.47.94-.47H16c.55.11.67.35.75.9v3.86c0 .22.1.85.49.99.3.1.51-.15.7-.34.83-.88 1.42-1.93 1.95-3.01.24-.47.44-.97.63-1.46.15-.36.38-.54.79-.54l3.34.01.3.01c.56.1.71.34.54.89-.27.87-.8 1.59-1.33 2.31-.56.77-1.15 1.51-1.7 2.29-.51.71-.47 1.07.16 1.68z"/></svg>