<svg xmlns="http://www.w3.org/2000/svg" xmlns:xlink="http://www.w3.org/1999/xlink" width="53" height="37" viewBox="0 0 53 37"><defs><path id="h6dfa" d="M638.32 4151.21v22.17a.8.8 0 0 1-.78.8h-35.08a.8.8 0 0 1-.78-.8v-22.17c0-.44.35-.8.78-.8h35.08a.8.8 0 0 1 .78.8zm-25.78 21.37v-2.18l-1.86-1.27c-.06.04-.12.06-.19.09l-3.87 1.31a.05.05 0 0 0-.03.05v2zm-2.25-13.55l.36 4.37c.04.58.39 1.1.9 1.36l1.04.53c.46.23 1 .23 1.46 0l1.04-.53c.51-.26.86-.78.9-1.36l.36-4.37c.04-.5-.12-.97-.45-1.34a1.69 1.69 0 0 0-1.27-.56h-2.62c-.5 0-.94.2-1.27.56-.33.37-.5.84-.45 1.34zm3.03 9.98l1.73-1.18v-1.26l-.3.15a3.15 3.15 0 0 1-2.86 0l-.3-.15v1.26zm6.73 1.57a.05.05 0 0 0-.03-.05l-3.87-1.31a1.48 1.48 0 0 1-.2-.09l-1.85 1.27v2.18h5.95zm16.7 2v-20.57h-33.5v20.57h1.77v-2c0-.7.45-1.34 1.1-1.56l3.88-1.32c.02 0 .03-.03.03-.05v-1.95-.1a3.32 3.32 0 0 1-.94-2.06l-.36-4.38c-.08-.93.24-1.86.86-2.55a3.27 3.27 0 0 1 2.42-1.08h2.62c.92 0 1.8.4 2.42 1.08.62.69.94 1.62.86 2.55l-.36 4.38a3.32 3.32 0 0 1-.95 2.06v2.05c0 .02.02.04.04.05l3.87 1.32c.66.22 1.1.85 1.1 1.56v2zm8.25 5.06v1.7c0 .92-.73 1.66-1.62 1.66h-46.76c-.9 0-1.62-.74-1.62-1.65v-1.7c0-.92.73-1.66 1.62-1.66h1.72v-25.63a3.33 3.33 0 0 1 3.29-3.36h36.74c1.81 0 3.29 1.5 3.29 3.36v25.63h1.72c.9 0 1.62.74 1.62 1.65zm-45.1-1.65h40.2v-25.63c0-.97-.78-1.76-1.73-1.76h-36.74c-.95 0-1.72.79-1.72 1.76zm43.53 1.65a.05.05 0 0 0-.05-.05h-19.26v.05a.8.8 0 0 1-.78.8h-6.68a.8.8 0 0 1-.78-.8v-.05h-19.26a.05.05 0 0 0-.05.05v1.7c0 .04.02.06.05.06h46.76c.03 0 .05-.02.05-.05zm-18.47-11.94a.8.8 0 0 1-.78.8h-.84a.8.8 0 0 1-.78-.8c0-.44.35-.8.78-.8h.84a.8.8 0 0 1 .78.8zm10.02 0a.8.8 0 0 1-.78.8h-6.68a.8.8 0 0 1-.79-.8c0-.44.35-.8.79-.8h6.68a.8.8 0 0 1 .78.8zm-1.67 3.42a.8.8 0 0 1-.78.8h-5.01a.8.8 0 0 1-.79-.8c0-.45.35-.8.79-.8h5a.8.8 0 0 1 .79.8zm-8.35 0a.8.8 0 0 1-.78.8h-.84a.8.8 0 0 1-.78-.8c0-.45.35-.8.78-.8h.84a.8.8 0 0 1 .78.8zm-2.43-10.93l4.33-1.68v1.03l-3.01 1.1 3.01 1.09v1.04l-4.33-1.7zm7.84-3.51l-2.26 6.28h-1.02l2.27-6.28zm.25 6.09v-1.04l3-1.1-3-1.1v-1.02l4.32 1.68v.89z"/></defs><g><g transform="translate(-593 -4145)"><use fill="#ff001b" xlink:href="#h6dfa"/></g></g></svg>