<svg xmlns="http://www.w3.org/2000/svg" xmlns:xlink="http://www.w3.org/1999/xlink" width="52" height="41" viewBox="0 0 52 41"><defs><path id="1pkia" d="M1325 4156.24c0 .4-.22.77-.58.95l-3.08 1.56v8.79a3.3 3.3 0 1 1 .35 6.1l2.22 5.93c.12.32.07.69-.12.97-.2.29-.52.46-.86.46h-5.26c-.34 0-.66-.17-.85-.46-.2-.28-.24-.65-.12-.97l2.21-5.94a3.3 3.3 0 0 1 .35-6.1v-7.72l-2.77 1.4v8.1c0 5-7.24 8.92-16.49 8.92-9.25 0-16.5-3.92-16.5-8.92v-8.1l-7.92-4.02a1.06 1.06 0 0 1-.58-.95c0-.4.22-.77.58-.95l23.95-12.18c.3-.15.64-.15.94 0l23.95 12.18c.36.18.58.55.58.95zm-10.6 13.07v-7.03l-13.93 7.09a1.03 1.03 0 0 1-.94 0l-13.94-7.1v7.04c0 1.66 1.44 3.34 3.95 4.61 2.78 1.41 6.5 2.19 10.46 2.19 3.97 0 7.68-.78 10.46-2.19 2.51-1.27 3.95-2.95 3.95-4.6zm7.02 9.57l-1.12-3-1.12 3zm-1.11-9.4h-.01c-.64 0-1.15.53-1.15 1.17 0 .65.52 1.18 1.15 1.18.64 0 1.16-.53 1.16-1.18 0-.64-.52-1.17-1.15-1.17zm1.32-13.24l-21.63-11-21.63 11 21.63 11 16.55-8.42-16.64-1.52c-.58-.06-1-.57-.95-1.16.05-.58.56-1 1.13-.95l20 1.83z"/></defs><g><g transform="translate(-1274 -4141)"><use fill="#ff001b" xlink:href="#1pkia"/></g></g></svg>