<svg xmlns="http://www.w3.org/2000/svg" xmlns:xlink="http://www.w3.org/1999/xlink" width="53" height="54" viewBox="0 0 53 54"><defs><path id="aogfa" d="M444 6139.91v38.88c0 1.05-.86 1.9-1.91 1.9h-14.65l2.95 5.49a1.92 1.92 0 0 1-1.69 2.82h-20.4a1.92 1.92 0 0 1-1.69-2.82l2.95-5.48h-14.65a1.92 1.92 0 0 1-1.91-1.91v-38.88c0-1.06.86-1.91 1.91-1.91h47.18a1.91 1.91 0 0 1 1.9 1.91zm-3.83 36.96v-7.64h-43.34v7.64zm0-11.47v-23.57h-43.34v23.57h12.13c.29-3.79 2.2-6.33 5.7-7.56a1.93 1.93 0 0 1 1.61.16l2.22 1.33 2.2-1.32a1.9 1.9 0 0 1 1.61-.17c3.5 1.23 5.41 3.77 5.7 7.56zm-14.67 19.77l-2.4-4.46h-9.2l-2.4 4.46zm-12.7-19.77h11.37c-.2-1.77-.92-2.9-2.34-3.61l-2.34 1.41c-.6.36-1.36.36-1.97 0l-2.38-1.41c-1.43.71-2.15 1.83-2.34 3.61zm5.7-22.33a7.02 7.02 0 1 1 0 14.04 7.02 7.02 0 0 1 0-14.04zm3.19 7.02a3.2 3.2 0 1 0-6.38 0 3.2 3.2 0 0 0 6.38 0zm-1.84 21.61a1.91 1.91 0 1 1-2.7 0 1.98 1.98 0 0 1 2.7 0z"/></defs><g><g transform="translate(-392 -6136)"><use fill="#ff001b" xlink:href="#aogfa"/></g></g></svg>