<svg xmlns="http://www.w3.org/2000/svg" xmlns:xlink="http://www.w3.org/1999/xlink" width="222" height="200" viewBox="0 0 222 200"><defs><path id="uadda" d="M850 4306.07c1.15-2.19 1.99-4.61 3.51-6.5 2.53-3.1 6.16-4.21 10.15-4.2h26.29V4293v-34.87c0-8.8 5.36-14.13 14.17-14.13h112.12c8.25 0 13.77 5.41 13.78 13.64.03 19.18.01 38.37.01 57.55v3.28h2.37c7.88 0 15.75-.02 23.63 0 8.55.01 13.95 5.36 13.95 13.9.02 25.52.02 51.05 0 76.58 0 8.54-5.38 13.91-13.92 13.93-11.67.02-23.34.03-35.01-.03a4.5 4.5 0 0 0-3.57 1.44c-4.45 4.53-8.98 9-13.5 13.47-2.99 2.96-5.06 2.96-8.04.01-4.57-4.53-9.08-9.11-13.72-13.56a5.01 5.01 0 0 0-3.14-1.27c-11.24-.09-22.48-.3-33.72.03-7.74.22-14.9-3.42-16.09-14.03-1.7 1.88-3.34 3.81-5.11 5.62-3.06 3.1-5.12 3.1-8.19.06-4.57-4.53-9.09-9.1-13.73-13.56a4.72 4.72 0 0 0-2.93-1.22c-11.03-.08-22.05-.06-33.08-.05-9.64 0-12.62-1.95-16.23-10.71v-83.02zm109.98 49.2c4.48-4.48 8.8-8.72 13.03-13.06a7.39 7.39 0 0 1 5.71-2.37c12.39.07 24.77.04 37.16.03 4.05 0 5.55-1.52 5.55-5.6v-76.16c0-4.04-1.53-5.54-5.6-5.54H904.34c-4.36 0-5.8 1.44-5.8 5.8v75.72c0 4.35 1.44 5.78 5.8 5.78 11.17 0 22.35.24 33.5-.1 4.88-.16 8.47 1.17 11.62 4.85 3.2 3.72 6.87 7.01 10.5 10.66zm-40.05 51.26c.7-.64 1.23-1.1 1.72-1.59 3.7-3.67 7.46-7.3 11.07-11.06a8.19 8.19 0 0 1 6.44-2.7c12.17.1 24.35.05 36.52.05 4.36 0 5.8-1.44 5.8-5.79v-34.87-2.85c-1.65.88-2.95 1.26-3.82 2.09-4.58 4.4-9.04 8.94-13.55 13.42-3.1 3.06-5.13 3.07-8.2.02-4.57-4.53-9.09-9.1-13.72-13.56a4.7 4.7 0 0 0-2.95-1.2c-11.74-.09-23.48-.05-35.23-.06-8.68-.01-14.05-5.37-14.06-14.02v-28.03-2.45h-25.53c-4.38 0-5.82 1.42-5.82 5.75v75.73c0 4.37 1.42 5.81 5.77 5.81 11.95.01 23.91.1 35.87-.05 3.12-.04 5.44.86 7.57 3.13 3.9 4.15 8 8.1 12.12 12.23zm80.2 23.32c.89-1.02 1.48-1.84 2.2-2.53 4.37-4.2 8.76-8.39 13.14-12.57 6.14-.14 12.28-.34 18.42-.4 7.3-.07 14.6 0 21.91-.02 4.08 0 5.6-1.5 5.6-5.55v-76.17c0-4.07-1.51-5.56-5.59-5.56l-23.4-.02h-2.38v7.56c-.04 8.42-5.4 13.8-13.81 13.84-7.6.03-15.18 0-22.77.01h-3.37v36.96c.02 9.16-5.29 14.42-14.54 14.4-11.53-.02-23.05.05-34.58-.05-2.06-.02-2.62.64-2.47 2.55.15 1.92.02 3.85.02 5.78 0 4.98 1.26 6.25 6.19 6.26 11.95 0 23.91.06 35.87-.05 2.8-.03 4.9.81 6.82 2.82 4.05 4.22 8.26 8.27 12.75 12.74zm-40.37-153.31l-38.64-.01c-3.83 0-6.05-2.49-5.03-5.57.63-1.93 2.09-2.84 4.03-2.96 1.5-.1 3-.02 4.51-.02h73.43c1 0 2.02.01 2.98.25 1.91.46 3.2 2.2 3.18 4.07a4.2 4.2 0 0 1-3.26 4.01c-.82.2-1.7.22-2.55.22h-38.65zm10.98 39.37h27.49c.72 0 1.44-.03 2.14.07a4.33 4.33 0 0 1 3.85 4.2c0 2.1-1.6 3.87-3.84 4.22-.42.06-.86.06-1.28.06-19.05.01-38.09.02-57.13 0-3.89 0-6.2-3.06-4.65-6.12 1-1.96 2.79-2.45 4.86-2.44 9.52.02 19.04 0 28.56 0zm-21.27-15.4c-9.52 0-19.04.03-28.56-.01-3.75-.02-5.94-2.72-4.75-5.78.77-1.98 2.39-2.75 4.42-2.77 2.93-.02 5.87-.01 8.8-.01h48.1c2.83 0 4.56 1.02 5.17 2.95.94 2.92-1.18 5.56-4.62 5.6-6.01.05-12.02.02-18.04.02h-10.52zm-24.8 19.69c0 2.3-2.06 4.26-4.46 4.26a4.42 4.42 0 0 1-4.44-4.28 4.42 4.42 0 0 1 4.46-4.26c2.4 0 4.45 1.98 4.44 4.28zm75.37-28.22a4.43 4.43 0 0 1 4.19 4.33 4.42 4.42 0 0 1-4.35 4.17 4.44 4.44 0 0 1-4.19-4.33 4.42 4.42 0 0 1 4.35-4.17z"/></defs><g><g transform="translate(-849 -4242)"><use fill="#212121" xlink:href="#uadda"/></g></g></svg>