<svg xmlns="http://www.w3.org/2000/svg" xmlns:xlink="http://www.w3.org/1999/xlink" width="23" height="22" viewBox="0 0 23 22"><defs><path id="gmipa" d="M1365 8914.52v8.96a5.52 5.52 0 0 1-5.52 5.51h-8.95a5.52 5.52 0 0 1-5.52-5.51v-8.96a5.52 5.52 0 0 1 5.52-5.52h8.95a5.52 5.52 0 0 1 5.52 5.52zm-1.77 8.96v-8.96a3.75 3.75 0 0 0-3.75-3.74h-8.95a3.75 3.75 0 0 0-3.75 3.74v8.96a3.75 3.75 0 0 0 3.75 3.74h8.95a3.75 3.75 0 0 0 3.75-3.74zm-3.07-4.48a5.16 5.16 0 1 1-10.32-.01 5.16 5.16 0 0 1 10.32 0zm-1.78 0a3.38 3.38 0 1 0-6.76 0 3.38 3.38 0 0 0 6.76 0zm2.91-6.28a1.3 1.3 0 0 1 0 1.84 1.31 1.31 0 0 1-2.22-.92 1.3 1.3 0 0 1 1.3-1.3c.34 0 .68.14.92.38z"/></defs><g><g transform="translate(-1344 -8908)"><use fill="#fff" xlink:href="#gmipa"/></g></g></svg>